<?xml version="1.0" encoding="UTF-8"?>
<!DOCTYPE svg PUBLIC "-//W3C//DTD SVG 1.1//EN" "http://www.w3.org/Graphics/SVG/1.1/DTD/svg11.dtd">
<!-- Creator: CorelDRAW 2017 -->
<svg xmlns="http://www.w3.org/2000/svg" xml:space="preserve" width="215.9mm" height="279.4mm" version="1.1" style="shape-rendering:geometricPrecision; text-rendering:geometricPrecision; image-rendering:optimizeQuality; fill-rule:evenodd; clip-rule:evenodd"
viewBox="0 0 21590 27940"
 xmlns:xlink="http://www.w3.org/1999/xlink">
 <defs>
  <style type="text/css">
   <![CDATA[
    .fil0 {fill:#02B2E0}
    .fil1 {fill:#0B548B}
   ]]>
  </style>
 </defs>
 <g id="Capa_x0020_1">
  <metadata id="CorelCorpID_0Corel-Layer"/>
  <g id="_1048539229408">
   <path class="fil0" d="M4484.05 8536.05c-2160.35,-89.56 -4276.92,1604.76 -4277.71,4053.39 -0.75,2313.82 2086.75,4122.14 4272.17,4045.83 56.01,-94.07 107.69,-182.09 219.99,-229.69 354.65,-150.3 195.3,414.78 506.04,324.52 128.56,-37.35 166.26,-180.33 142.5,-330.77 -231.55,-210.12 -1185.11,-125.97 -1599.55,-247.35 -500.81,-146.68 -894.94,-449.78 -1137.19,-742.39 -1165.55,-1407.85 -1192.7,-4350.52 14.57,-5704.53 1082.14,-1213.68 2527.6,-554.59 2715.97,-964.04 43.69,-116.13 -14.93,-262.25 -106.88,-299.23 -185.75,-74.69 -230.1,52.32 -260.01,173.12 -76.09,307.37 -381.69,138.75 -489.9,-78.86z"/>
   <path class="fil0" d="M20641.33 15449.18l-180.26 -64.55c-118.75,291.92 -253.97,551.41 -501.67,700.26 -276.02,165.88 -673.91,160.43 -947.33,-11.8 -414.57,-261.15 -771.49,-1064.93 -526.54,-1754.06 207.47,-583.68 824.22,-720.89 1141.56,-526.98 149.45,91.32 167.27,221.47 185.2,413.32 39.21,419.42 523.34,438.61 705.74,164.1 387.27,-582.87 -1184.26,-1416.49 -2205.09,-432.92 -1045.84,1007.66 -372.58,2889.08 1109.75,2724.32 670.15,-74.49 1152.89,-690.12 1218.64,-1211.69z"/>
   <path class="fil1" d="M7686.76 11946.89c-756.82,127.81 -822.35,1357.73 436.89,1187.99 743.39,-100.2 833.53,-1402.52 -436.89,-1187.99z"/>
   <path class="fil1" d="M7448.43 13351.11c-547,169.77 -549.19,891.21 13.27,1069.58 162.7,51.59 363.8,114.43 551.2,63.52 497.48,-135.15 577.12,-907.65 -37.01,-1080.83 -179.41,-50.59 -332.24,-112.85 -527.46,-52.27z"/>
   <path class="fil1" d="M7695.26 10685.35c-232.11,63.27 -675.79,120.19 -649.23,633.22 17.75,342.92 340.85,587.22 708.73,499.09 352.09,-84.36 667.64,-203.16 652.34,-631.17 -12.57,-351.62 -333.6,-604.24 -711.84,-501.14z"/>
   <path class="fil1" d="M7214.93 9754.48c-779.92,188.67 -580.14,1098.65 34.59,951.52 145.84,-34.9 483.58,-233.43 487.66,-524.49 3.81,-272.38 -243.89,-494.36 -522.25,-427.03z"/>
   <path class="fil1" d="M7036.83 14454.19c-247.8,62.54 -445.05,350.9 -286.01,625.83 80.88,139.82 389.77,387.37 651.99,329.63 241.7,-53.22 437.14,-354.16 283.93,-629.97 -80.71,-145.29 -403.02,-387.8 -649.91,-325.49z"/>
   <path class="fil1" d="M6502.99 15235.19c-485.57,180.65 -68.01,796.37 284.69,695.9 455.73,-129.82 103.97,-840.5 -284.69,-695.9z"/>
   <path class="fil1" d="M6573.51 9252.45c-509.59,245.81 -258.1,822.89 137.29,674.6 83.91,-31.47 311.69,-211.03 292.8,-433.69 -17.18,-202.35 -229.82,-337.52 -430.09,-240.91z"/>
   <path class="fil0" d="M16833.22 11999.33c-488.23,130.95 -251,684.7 175.33,579.44 427.24,-105.49 239.89,-690.82 -175.33,-579.44z"/>
   <path class="fil1" d="M6073.23 8907.74c-353.11,162.74 -239.27,656.93 106.59,542.29 97.86,-32.43 229.31,-202.71 216.92,-353.21 -12.71,-154.38 -170.78,-259.47 -323.51,-189.08z"/>
   <path class="fil1" d="M5984.7 15733.14c-316.12,174.95 5.11,663.66 298.47,514.56 269.27,-136.85 14.54,-687.8 -298.47,-514.56z"/>
   <path class="fil1" d="M5583.13 8715.59c-284.87,126.68 -163.52,561.19 120.71,419.31 237.13,-118.37 169.73,-548.46 -120.71,-419.31z"/>
   <path class="fil1" d="M5550.64 16013.92c-271.99,86.63 -79.06,534.08 188.31,434.81 237.85,-88.31 65.53,-515.66 -188.31,-434.81z"/>
   <path class="fil0" d="M9587.21 13585.75l-586.77 -14.87 -4.21 3010.03 566.46 6.15 9.86 -2067.54c19.2,-58.71 15.96,-40.99 41.24,-71.87 478.3,-799.69 600.48,-214.27 1075.59,-301.62 523.2,-96.2 148.86,-906.08 -508.53,-590.08 -303.87,146.07 -373.84,345.59 -585.89,531.52l-7.75 -501.72z"/>
   <path class="fil0" d="M16647.47 13651.91c-45.64,193.16 -41.79,2641.97 -11.53,2926.46 151.06,24.86 432.39,35.91 549.96,-12.51l0.35 -3078.9c-183.93,-1.11 -410.2,88.3 -538.78,164.95z"/>
   <path class="fil0" d="M15243.79 14343.47c4.4,7.45 11.45,8.81 13.12,22.41 4.58,37.49 28.19,-15.23 27.49,234.43 -0.27,97.09 0.83,193.91 0.88,291 0.19,353.16 -23.24,1482.3 6.35,1672.78 96.86,45.59 445.86,24.1 552.85,14.8 59.02,-729.36 -10.89,-1631.15 -5.22,-2372.52 6.86,-405.63 -546.11,-1055.17 -1442.24,-509.11 -263.33,160.45 -350.59,323.46 -472.97,353.18l-3.57 -2059.16c-216.68,-23.34 -450.99,95.67 -604.07,173.31l-1.54 4435.43 596.92 3.74c61.77,-470.27 -44.38,-1894.58 11.86,-2214.45 30.04,-170.87 465.21,-404.14 657.86,-454.83 347.64,-91.49 651.89,87.77 662.28,408.99z"/>
   <path class="fil0" d="M11007.27 13662.23l-1.24 117.83c115.63,58.33 357.13,26.92 509.23,30.63 69.59,485.56 -49.25,1880.38 25.07,2331.03 144.35,875.3 1345.73,492.83 1386.39,40.96 -218.61,-91.6 -101.01,-52.39 -279,51.28 -101.47,59.09 -261.94,53.69 -357.05,-2.23 -215.86,-126.89 -156.51,-440.13 -156.26,-705.42 0.52,-528.86 -35.88,-1193.91 5.07,-1705.75l674.43 -13.91 1.27 -255.96 -668.21 -3.41 -7.9 -1024.78 -173.06 -16.44c-100.26,239.61 -85.03,790.24 -541.68,1048.36 -170.65,96.46 -252.63,62.64 -417.06,107.81z"/>
  </g>
 </g>
</svg>
