<?xml version="1.0" encoding="UTF-8"?>
<!DOCTYPE svg PUBLIC "-//W3C//DTD SVG 1.1//EN" "http://www.w3.org/Graphics/SVG/1.1/DTD/svg11.dtd">
<!-- Creator: CorelDRAW 2017 -->
<svg xmlns="http://www.w3.org/2000/svg" xml:space="preserve" width="84.5971mm" height="83.2044mm" version="1.1" style="shape-rendering:geometricPrecision; text-rendering:geometricPrecision; image-rendering:optimizeQuality; fill-rule:evenodd; clip-rule:evenodd"
viewBox="0 0 7962.06 7830.99"
 xmlns:xlink="http://www.w3.org/1999/xlink">
 <defs>
  <style type="text/css">
   <![CDATA[
    .fil0 {fill:#02B2E0}
    .fil1 {fill:#0B548B}
   ]]>
  </style>
 </defs>
 <g id="Capa_x0020_1">
  <metadata id="CorelCorpID_0Corel-Layer"/>
  <g id="_208227782912">
   <path class="fil0" d="M4026.08 109.7c-2033.27,-84.29 -4025.33,1510.36 -4026.07,3814.95 -0.71,2177.71 1964,3879.65 4020.86,3807.83 52.72,-88.54 101.36,-171.38 207.05,-216.18 333.79,-141.46 183.81,390.38 476.27,305.43 121,-35.15 156.48,-169.72 134.12,-311.31 -217.93,-197.76 -1115.4,-118.56 -1505.46,-232.8 -471.35,-138.05 -842.29,-423.32 -1070.29,-698.72 -1096.99,-1325.03 -1122.54,-4094.6 13.71,-5368.96 1018.48,-1142.28 2378.91,-521.97 2556.2,-907.33 41.12,-109.3 -14.05,-246.82 -100.59,-281.63 -174.82,-70.3 -216.56,49.24 -244.71,162.94 -71.61,289.29 -359.24,130.59 -461.08,-74.22z"/>
   <path class="fil1" d="M7040.39 3319.9c-712.3,120.29 -773.97,1277.86 411.19,1118.11 699.66,-94.31 784.5,-1320.02 -411.19,-1118.11z"/>
   <path class="fil1" d="M6816.08 4641.52c-514.82,159.78 -516.88,838.78 12.49,1006.66 153.13,48.56 342.4,107.7 518.78,59.78 468.22,-127.2 543.17,-854.26 -34.83,-1017.25 -168.86,-47.61 -312.7,-106.21 -496.43,-49.2z"/>
   <path class="fil1" d="M7048.39 2132.57c-218.46,59.55 -636.04,113.12 -611.04,595.97 16.71,322.75 320.8,552.68 667.04,469.73 331.38,-79.4 628.37,-191.21 613.97,-594.04 -11.83,-330.94 -313.98,-568.7 -669.97,-471.66z"/>
   <path class="fil1" d="M6596.32 1256.46c-734.04,177.57 -546.01,1034.02 32.56,895.55 137.26,-32.85 455.13,-219.7 458.97,-493.64 3.59,-256.36 -229.54,-465.28 -491.53,-401.91z"/>
   <path class="fil1" d="M6428.69 5679.71c-233.22,58.86 -418.87,330.26 -269.19,589.02 76.12,131.6 366.84,364.58 613.64,310.24 227.48,-50.09 411.43,-333.33 267.23,-592.91 -75.96,-136.74 -379.31,-364.99 -611.68,-306.34z"/>
   <path class="fil1" d="M5926.26 6414.76c-457.01,170.02 -64.01,749.52 267.94,654.96 428.92,-122.18 97.85,-791.06 -267.94,-654.96z"/>
   <path class="fil1" d="M5992.63 783.96c-479.61,231.35 -242.92,774.48 129.21,634.92 78.97,-29.62 293.35,-198.62 275.58,-408.18 -16.17,-190.45 -216.3,-317.67 -404.79,-226.74z"/>
   <path class="fil1" d="M5521.78 459.53c-332.34,153.17 -225.19,618.29 100.32,510.39 92.1,-30.52 215.82,-190.79 204.16,-332.43 -11.96,-145.3 -160.73,-244.21 -304.48,-177.96z"/>
   <path class="fil1" d="M5438.45 6883.42c-297.52,164.66 4.81,624.62 280.91,484.29 253.43,-128.8 13.68,-647.34 -280.91,-484.29z"/>
   <path class="fil1" d="M5060.51 278.68c-268.11,119.23 -153.9,528.18 113.61,394.64 223.18,-111.41 159.75,-516.2 -113.61,-394.64z"/>
   <path class="fil1" d="M5029.93 7147.68c-255.99,81.53 -74.41,502.66 177.23,409.23 223.86,-83.12 61.68,-485.33 -177.23,-409.23z"/>
  </g>
 </g>
</svg>
